{
  "accessors": [
    {
      "bufferView": 2,
      "componentType": 5126,
      "count": 1427,
      "max": [
        0.43581455945968628,
        0.36456629633903503,
        1.5173702239990234
      ],
      "min": [
        -0.43581268191337585,
        -0.36039051413536072,
        -0.0064504244364798069
      ],
      "type": "VEC3"
    },
    {
      "bufferView": 2,
      "byteOffset": 17124,
      "componentType": 5126,
      "count": 1427,
      "max": [
        0.99999403953552246,
        0.99759566783905029,
        0.99775809049606323
      ],
      "min": [
        -0.99999403953552246,
        -0.99970066547393799,
        -0.99869835376739502
      ],
      "type": "VEC3"
    },
    {
      "bufferView": 3,
      "componentType": 5126,
      "count": 1427,
      "max": [
        0.99999761581420898,
        0.99993723630905151,
        0.99803620576858521,
        1
      ],
      "min": [
        -0.99967664480209351,
        -0.98710650205612183,
        -0.99780219793319702,
        1
      ],
      "type": "VEC4"
    },
    {
      "bufferView": 1,
      "componentType": 5126,
      "count": 1427,
      "max": [
        0.99066001176834106,
        0.98792999982833862
      ],
      "min": [
        0.0015399999683722854,
        0.0015800000401213765
      ],
      "type": "VEC2"
    },
    {
      "bufferView": 0,
      "componentType": 5125,
      "count": 2658,
      "max": [
        1426
      ],
      "min": [
        0
      ],
      "type": "SCALAR"
    },
    {
      "bufferView": 4,
      "componentType": 5126,
      "count": 1,
      "max": [
        1,
        0,
        0,
        0,
        0,
        1,
        0,
        0,
        0,
        0,
        1,
        0,
        0,
        0,
        0,
        1
      ],
      "min": [
        1,
        0,
        0,
        0,
        0,
        1,
        0,
        0,
        0,
        0,
        1,
        0,
        0,
        0,
        0,
        1
      ],
      "type": "MAT4"
    }
  ],
  "asset": {
    "extras": {
      "author": "Inuciian (https://sketchfab.com/Inuciian)",
      "license": "CC-BY-4.0 (http://creativecommons.org/licenses/by/4.0/)",
      "source": "https://sketchfab.com/models/2b0997bbd6964d7ea45d2943260dec23",
      "title": "Baba Yaga Character"
    },
    "generator": "Sketchfab-3.18.5",
    "version": "2.0"
  },
  "bufferViews": [
    {
      "buffer": 0,
      "byteLength": 10632,
      "byteOffset": 0,
      "name": "floatBufferViews",
      "target": 34963
    },
    {
      "buffer": 0,
      "byteLength": 11416,
      "byteOffset": 10632,
      "byteStride": 8,
      "name": "floatBufferViews",
      "target": 34962
    },
    {
      "buffer": 0,
      "byteLength": 34248,
      "byteOffset": 22048,
      "byteStride": 12,
      "name": "floatBufferViews",
      "target": 34962
    },
    {
      "buffer": 0,
      "byteLength": 22832,
      "byteOffset": 56296,
      "byteStride": 16,
      "name": "floatBufferViews",
      "target": 34962
    },
    {
      "buffer": 0,
      "byteLength": 64,
      "byteOffset": 79128,
      "byteStride": 64,
      "name": "floatBufferViews"
    }
  ],
  "buffers": [
    {
      "byteLength": 79192,
      "uri": "scene.bin"
    }
  ],
  "images": [
    {
      "uri": "textures/Baba_yaga_mat_baseColor.png"
    }
  ],
  "materials": [
    {
      "doubleSided": true,
      "emissiveFactor": [
        0,
        0,
        0
      ],
      "name": "Baba_yaga_mat",
      "pbrMetallicRoughness": {
        "baseColorFactor": [
          1,
          1,
          1,
          1
        ],
        "baseColorTexture": {
          "index": 0,
          "texCoord": 0
        },
        "metallicFactor": 0,
        "roughnessFactor": 1
      }
    }
  ],
  "meshes": [
    {
      "name": "Baba_Yaga_0",
      "primitives": [
        {
          "attributes": {
            "NORMAL": 1,
            "POSITION": 0,
            "TANGENT": 2,
            "TEXCOORD_0": 3
          },
          "indices": 4,
          "material": 0,
          "mode": 4
        }
      ]
    }
  ],
  "nodes": [
    {
      "children": [
        1
      ],
      "name": "RootNode (gltf orientation matrix)",
      "rotation": [
        -0.70710678118654746,
        -0,
        -0,
        0.70710678118654757
      ]
    },
    {
      "children": [
        2
      ],
      "name": "RootNode (model correction matrix)"
    },
    {
      "children": [
        3
      ],
      "name": "Root"
    },
    {
      "children": [
        4,
        5
      ],
      "matrix": [
        1,
        0,
        0,
        0,
        0,
        1,
        0,
        0,
        0,
        0,
        1,
        0,
        0,
        0.021520000000000004,
        0.72178000000000009,
        1
      ],
      "name": "Armature_Baba_Yaga"
    },
    {
      "name": "Armature_Baba_Yaga_rootJoint"
    },
    {
      "children": [
        6
      ],
      "matrix": [
        -1,
        -0,
        0,
        0,
        0,
        -1,
        0,
        0,
        0,
        0,
        1,
        0,
        0,
        -0.08229000000000003,
        -0.72178000000000009,
        1
      ],
      "name": "Baba_Yaga"
    },
    {
      "mesh": 0,
      "name": "Baba_Yaga_0"
    }
  ],
  "samplers": [
    {
      "magFilter": 9729,
      "minFilter": 9987,
      "wrapS": 10497,
      "wrapT": 10497
    }
  ],
  "scene": 0,
  "scenes": [
    {
      "name": "OSG_Scene",
      "nodes": [
        0
      ]
    }
  ],
  "skins": [
    {
      "inverseBindMatrices": 5,
      "joints": [
        4
      ],
      "skeleton": 4
    }
  ],
  "textures": [
    {
      "sampler": 0,
      "source": 0
    }
  ]
}

